# xmcd
# 
# Track frame offsets:
#   150
#   20950
#   35515
#   57290
#   74825
#   91565
#   108522
#   122687
#   135922
#   153720
#   166365
#   182832
#   198430
#   214215
# 
# Disc length: 3018 seconds
# 
# Revision: 2
# Processed by: cddbd v1.5.1PL2 Copyright (c) Steve Scherf et al.
# Submitted via: Synapstar 1.0 
# 
DISCID=cc0bc80e
DTITLE=Various Artist - SDP024
DYEAR=1900
DGENRE=Country
TTITLE0=Shania Twain - You Win My Love
TTITLE1=Blackhawk - Almost A Memory Now
TTITLE2=Wynonna - To Be Loved By You
TTITLE3=Clint Black - Walkin Away
TTITLE4=Faith Hill - Someone Elses Dream
TTITLE5=Alabama - It Works
TTITLE6=John Berry - Every Time My Heart Calls Your Name
TTITLE7=Lonestar - No News
TTITLE8=Terri Clark - If I Were You
TTITLE9=Daryle Singletary - Too Much Fun
TTITLE10=Ricochet - What Do I Know
TTITLE11=Keith Stegall - 1969
TTITLE12=Billy Dean - It's What I Do
TTITLE13=Neal McCoy - You Gotta Love That
EXTD=MediaType: Karaoke CD+G Producer: StarDisc
EXTT0=
EXTT1=
EXTT2=
EXTT3=
EXTT4=
EXTT5=
EXTT6=
EXTT7=
EXTT8=
EXTT9=
EXTT10=
EXTT11=
EXTT12=
EXTT13=
PLAYORDER=
